<svg width="20" height="14" viewBox="0 0 20 14" fill="none" xmlns="http://www.w3.org/2000/svg">
<path d="M18.3332 5.33366H1.6665M9.1665 8.66699H4.99984M1.6665 3.83366L1.6665 10.167C1.6665 11.1004 1.6665 11.5671 1.84816 11.9236C2.00795 12.2372 2.26292 12.4922 2.57652 12.652C2.93304 12.8337 3.39975 12.8337 4.33317 12.8337L15.6665 12.8337C16.5999 12.8337 17.0666 12.8337 17.4232 12.652C17.7368 12.4922 17.9917 12.2372 18.1515 11.9236C18.3332 11.5671 18.3332 11.1004 18.3332 10.167V3.83366C18.3332 2.90024 18.3332 2.43353 18.1515 2.07701C17.9917 1.76341 17.7368 1.50844 17.4232 1.34865C17.0666 1.16699 16.5999 1.16699 15.6665 1.16699L4.33317 1.16699C3.39975 1.16699 2.93304 1.16699 2.57652 1.34865C2.26292 1.50844 2.00795 1.7634 1.84816 2.07701C1.6665 2.43353 1.6665 2.90024 1.6665 3.83366Z" stroke="#A1A1AA" stroke-width="1.67" stroke-linecap="round" stroke-linejoin="round"/>
</svg>
