<svg width="17" height="16" viewBox="0 0 17 16" fill="none" xmlns="http://www.w3.org/2000/svg">
<g id="Loading3Quarters" clip-path="url(#clip0_3200_1333)">
<path id="Vector" d="M8.5 16C7.42031 16 6.37188 15.7891 5.38594 15.3719C4.43281 14.9688 3.57813 14.3906 2.84375 13.6562C2.10938 12.9219 1.53125 12.0672 1.12813 11.1141C0.710938 10.1281 0.5 9.07969 0.5 8C0.5 7.68906 0.751563 7.4375 1.0625 7.4375C1.37344 7.4375 1.625 7.68906 1.625 8C1.625 8.92813 1.80625 9.82812 2.16563 10.6766C2.5125 11.4953 3.00781 12.2312 3.63906 12.8625C4.27031 13.4938 5.00625 13.9906 5.825 14.3359C6.67188 14.6938 7.57188 14.875 8.5 14.875C9.42813 14.875 10.3281 14.6938 11.1766 14.3344C11.9953 13.9875 12.7313 13.4922 13.3625 12.8609C13.9938 12.2297 14.4906 11.4938 14.8359 10.675C15.1938 9.82812 15.375 8.92813 15.375 8C15.375 7.07188 15.1938 6.17188 14.8344 5.32344C14.4887 4.50665 13.9884 3.76439 13.3609 3.1375C12.7347 2.50925 11.9923 2.0088 11.175 1.66406C10.3281 1.30625 9.42813 1.125 8.5 1.125C8.18906 1.125 7.9375 0.873438 7.9375 0.5625C7.9375 0.251563 8.18906 0 8.5 0C9.57969 0 10.6281 0.210938 11.6141 0.628125C12.5672 1.03125 13.4219 1.60938 14.1563 2.34375C14.8906 3.07812 15.4672 3.93438 15.8703 4.88594C16.2875 5.87188 16.4984 6.92031 16.4984 8C16.4984 9.07969 16.2875 10.1281 15.8703 11.1141C15.4688 12.0672 14.8906 12.9219 14.1563 13.6562C13.4219 14.3906 12.5656 14.9672 11.6141 15.3703C10.6281 15.7891 9.57969 16 8.5 16Z" fill="white"/>
</g>
<defs>
<clipPath id="clip0_3200_1333">
<rect width="16" height="16" fill="white" transform="translate(0.5)"/>
</clipPath>
</defs>
</svg>
