<svg width="122" height="32" viewBox="0 0 122 32" fill="none" xmlns="http://www.w3.org/2000/svg">
<g clip-path="url(#clip0_1831_9574)">
<path d="M121.958 31.8774C121.891 31.9708 121.758 31.9842 121.664 31.9174L107.67 21.6218L100.192 26.0552C100.098 26.1086 99.9915 26.1086 99.898 26.0552C99.7645 25.9751 99.7244 25.8015 99.8045 25.668L105.747 15.9199L107.683 12.7417L110.087 15.9199L121.971 31.637C122.012 31.7038 122.012 31.8106 121.958 31.8774Z" fill="white"/>
<path d="M121.958 0.122625C121.891 0.0291497 121.758 0.0157937 121.664 0.0825615L107.67 10.3782L100.192 5.94478C100.098 5.89137 99.9915 5.89137 99.898 5.94478C99.7645 6.0249 99.7244 6.1985 99.8045 6.33203L105.747 16.0801L107.683 19.2583L110.087 16.0801L121.971 0.362987C122.012 0.296219 122.012 0.189392 121.958 0.122625Z" fill="#E9420C"/>
<path d="M96.9736 21.408L96.0923 18.5504H90.9645L90.003 21.408H86.9451L91.8859 7.53369H95.2243L100.125 21.408H96.9736ZM95.2777 16.1467L93.5551 10.6584H93.515L91.739 16.1467H95.2777Z" fill="white"/>
<path d="M82.1244 9.99082V21.4081H79.2267V9.99082H75.0337V7.54712H86.3175V9.99082H82.1244Z" fill="white"/>
<path d="M60.8122 9.99075V12.9018H67.5691V15.3589H60.8122V18.951H68.5038V21.3947H57.9812V7.53369H68.1833V9.99075H60.8122Z" fill="white"/>
<path d="M49.702 9.5638C48.9943 9.5638 48.4067 9.71069 47.9527 10.0178C47.4987 10.325 47.2717 10.7256 47.2717 11.233C47.2717 11.6069 47.3785 11.914 47.5922 12.141C47.8058 12.3814 48.2465 12.5817 48.9275 12.7286L52.1858 13.5165C53.5211 13.8369 54.4559 14.3043 54.9767 14.9186C55.4975 15.5195 55.7645 16.294 55.7645 17.2287C55.7645 18.2169 55.5242 19.0582 55.0434 19.7392C54.5627 20.4202 53.9084 20.9277 53.0805 21.2749C52.2526 21.6087 51.3178 21.769 50.2762 21.769C48.4468 21.769 47.018 21.3817 45.9897 20.6072C44.9615 19.8327 44.414 18.6709 44.3606 17.1353H47.1381C47.1648 17.843 47.4186 18.3905 47.926 18.7911C48.4334 19.1784 49.1412 19.3787 50.0759 19.3787C51.0107 19.3787 51.7318 19.2318 52.2258 18.938C52.7199 18.6442 52.9736 18.1902 52.9736 17.5893C52.9736 17.202 52.8401 16.9083 52.573 16.6812C52.306 16.4542 51.8653 16.2539 51.251 16.0803C50.6368 15.8934 49.6085 15.6397 48.1664 15.3192C46.8978 15.0388 45.9897 14.5847 45.4155 13.9705C44.8547 13.3562 44.5743 12.5016 44.5743 11.4333C44.5743 10.6187 44.7746 9.88428 45.1618 9.22996C45.5624 8.58899 46.15 8.08155 46.9512 7.72101C47.7524 7.34711 48.7272 7.16016 49.9023 7.16016C50.9706 7.16016 51.9054 7.34711 52.7066 7.72101C53.5078 8.09491 54.1354 8.6157 54.5894 9.28338C55.0434 9.95105 55.2838 10.7389 55.3105 11.647H52.533C52.4128 10.2582 51.4647 9.5638 49.702 9.5638Z" fill="white"/>
<path d="M39.4866 21.408V7.53369H42.3843V21.408H39.4866Z" fill="white"/>
<path d="M31.8484 18.0429L34.8663 7.53369H37.8842L33.1704 21.408H30.4062L25.7324 7.53369H28.8438L31.8216 18.0429H31.8484Z" fill="white"/>
<path d="M16.7853 9.99075V12.9018H23.5422V15.3589H16.7853V18.951H24.477V21.3947H13.9543V7.53369H24.1431V9.99075H16.7853Z" fill="white"/>
<path d="M11.3772 11.4596C11.3772 12.2475 11.1903 12.9419 10.8164 13.5294C10.4425 14.117 9.9217 14.531 9.24067 14.758L9.69469 14.985C10.2288 15.2654 10.576 15.666 10.7363 16.1868C10.9099 16.7076 10.99 17.3486 10.99 18.1231V19.4184C10.99 20.3932 11.2036 20.9407 11.6176 21.0475V21.408H8.41275C8.33262 21.181 8.26586 20.8739 8.19909 20.5C8.14567 20.1261 8.11897 19.7656 8.11897 19.4317L8.09226 17.9228C8.09226 17.3352 7.98543 16.8945 7.78513 16.6141C7.58482 16.3337 7.33111 16.1601 7.01062 16.0933C6.70349 16.0132 6.30288 15.9731 5.8088 15.9731H2.83096V21.3947H0V7.53369H7.17086C8.02549 7.53369 8.78664 7.72064 9.41426 8.08119C10.0552 8.44173 10.536 8.90911 10.8698 9.51002C11.2036 10.0976 11.3772 10.7519 11.3772 11.4596ZM8.47951 11.7534C8.47951 11.2059 8.30592 10.7519 7.94537 10.4314C7.59818 10.0976 7.11745 9.93733 6.52989 9.93733H2.84431V13.6496H6.32959C7.05068 13.6496 7.58482 13.5027 7.94537 13.2223C8.29256 12.9152 8.47951 12.4345 8.47951 11.7534Z" fill="white"/>
</g>
<defs>
<clipPath id="clip0_1831_9574">
<rect width="122" height="31.9184" fill="white" transform="translate(0 0.0408325)"/>
</clipPath>
</defs>
</svg>
