<svg width="92" height="24" viewBox="0 0 92 24" fill="none" xmlns="http://www.w3.org/2000/svg">
<path d="M91.7025 23.9385C91.6523 24.0088 91.5519 24.0188 91.4816 23.9686L80.9589 16.2272L75.336 19.5607C75.2657 19.6009 75.1854 19.6009 75.1151 19.5607C75.0147 19.5005 74.9846 19.3699 75.0448 19.2695L79.513 11.9398L80.9689 9.55005L82.7762 11.9398L91.7125 23.7578C91.7427 23.808 91.7427 23.8883 91.7025 23.9385Z" fill="#0E1821"/>
<path d="M91.7025 0.061501C91.6523 -0.00878455 91.5519 -0.0188272 91.4816 0.0313768L80.9589 7.77283L75.336 4.43929C75.2657 4.39912 75.1854 4.39912 75.1151 4.43929C75.0147 4.49953 74.9846 4.63006 75.0448 4.73047L79.513 12.0602L80.9689 14.45L82.7762 12.0602L91.7125 0.242234C91.7427 0.19203 91.7427 0.111705 91.7025 0.061501Z" fill="#E9420C"/>
<path d="M72.9161 16.0664L72.2534 13.9177H68.3978L67.6748 16.0664H65.3755L69.0906 5.63403H71.6008L75.2857 16.0664H72.9161ZM71.6409 12.1103L70.3457 7.98358H70.3156L68.9801 12.1103H71.6409Z" fill="#0E1821"/>
<path d="M61.7509 7.4816V16.0665H59.572V7.4816H56.4192V5.64413H64.9037V7.4816H61.7509Z" fill="#0E1821"/>
<path d="M45.7258 7.48154V9.67043H50.8065V11.5179H45.7258V14.2189H51.5093V16.0564H43.5972V5.63403H51.2683V7.48154H45.7258Z" fill="#0E1821"/>
<path d="M37.3718 7.16049C36.8396 7.16049 36.3978 7.27094 36.0564 7.50188C35.7151 7.73282 35.5444 8.03404 35.5444 8.41559C35.5444 8.69673 35.6247 8.92767 35.7853 9.09837C35.946 9.2791 36.2773 9.42971 36.7894 9.54016L39.2394 10.1326C40.2435 10.3735 40.9463 10.725 41.3379 11.1869C41.7295 11.6387 41.9303 12.2211 41.9303 12.9239C41.9303 13.6669 41.7496 14.2995 41.3881 14.8116C41.0266 15.3237 40.5346 15.7052 39.9121 15.9663C39.2896 16.2173 38.5867 16.3378 37.8035 16.3378C36.428 16.3378 35.3536 16.0466 34.5804 15.4642C33.8073 14.8819 33.3956 14.0083 33.3555 12.8536H35.444C35.464 13.3858 35.6548 13.7975 36.0364 14.0987C36.4179 14.3899 36.9501 14.5405 37.6529 14.5405C38.3558 14.5405 38.898 14.43 39.2695 14.2091C39.641 13.9882 39.8318 13.6468 39.8318 13.195C39.8318 12.9038 39.7314 12.6829 39.5306 12.5122C39.3297 12.3415 38.9984 12.1909 38.5365 12.0604C38.0746 11.9198 37.3015 11.7291 36.2171 11.4881C35.2632 11.2772 34.5804 10.9358 34.1487 10.474C33.727 10.0121 33.5161 9.36947 33.5161 8.5662C33.5161 7.95371 33.6667 7.40147 33.9579 6.90947C34.2591 6.42751 34.7009 6.04597 35.3034 5.77486C35.9058 5.49372 36.6388 5.35315 37.5224 5.35315C38.3257 5.35315 39.0285 5.49372 39.631 5.77486C40.2334 6.05601 40.7053 6.4476 41.0467 6.94964C41.3881 7.45168 41.5688 8.04408 41.5889 8.72686H39.5004C39.4101 7.68261 38.6972 7.16049 37.3718 7.16049Z" fill="#0E1821"/>
<path d="M29.6907 16.0664V5.63403H31.8695V16.0664H29.6907Z" fill="#0E1821"/>
<path d="M23.9473 13.5361L26.2165 5.63403H28.4858L24.9414 16.0664H22.8629L19.3486 5.63403H21.6881L23.9272 13.5361H23.9473Z" fill="#0E1821"/>
<path d="M12.6211 7.48154V9.67043H17.7017V11.5179H12.6211V14.2189H18.4046V16.0564H10.4924V5.63403H18.1536V7.48154H12.6211Z" fill="#0E1821"/>
<path d="M8.55475 8.58602C8.55475 9.17843 8.41418 9.70055 8.13304 10.1423C7.8519 10.5841 7.46031 10.8954 6.94823 11.0661L7.28961 11.2368C7.69125 11.4477 7.95231 11.7489 8.0728 12.1405C8.20333 12.5321 8.26357 13.014 8.26357 13.5964V14.5703C8.26357 15.3033 8.42422 15.715 8.73549 15.7953V16.0664H6.3257C6.26545 15.8957 6.21525 15.6648 6.16505 15.3836C6.12488 15.1025 6.1048 14.8314 6.1048 14.5804L6.08472 13.4458C6.08472 13.004 6.00439 12.6726 5.85378 12.4618C5.70317 12.2509 5.51239 12.1204 5.27141 12.0702C5.04048 12.0099 4.73925 11.9798 4.36774 11.9798H2.12865V16.0564H0V5.63403H5.3919C6.03451 5.63403 6.60684 5.7746 7.07876 6.04571C7.56071 6.31681 7.92218 6.66823 8.1732 7.12007C8.42422 7.56186 8.55475 8.05386 8.55475 8.58602ZM6.3759 8.80692C6.3759 8.39525 6.24537 8.05386 5.97427 7.81288C5.71321 7.56186 5.35174 7.44138 4.90995 7.44138H2.13869V10.2327H4.75934C5.30154 10.2327 5.70317 10.1223 5.97427 9.91141C6.23533 9.68047 6.3759 9.319 6.3759 8.80692Z" fill="#0E1821"/>
</svg>
