<svg width="14" height="14" viewBox="0 0 14 14" fill="none" xmlns="http://www.w3.org/2000/svg">
<path fill-rule="evenodd" clip-rule="evenodd" d="M1.47415 4.51287C1.24143 4.62917 1.04571 4.80801 0.908956 5.02933C0.772205 5.25066 0.69983 5.50571 0.699951 5.76588V11.2C0.699951 11.5713 0.847451 11.9274 1.11 12.1899C1.37255 12.4525 1.72865 12.6 2.09995 12.6H11.9C12.2713 12.6 12.6273 12.4525 12.8899 12.1899C13.1525 11.9274 13.3 11.5713 13.3 11.2V5.76517C13.2999 5.50513 13.2275 5.25023 13.0908 5.02904C12.954 4.80785 12.7584 4.62911 12.5258 4.51287L7.62575 2.06287C7.43143 1.96577 7.21718 1.91522 6.99995 1.91522C6.78272 1.91522 6.56847 1.96577 6.37415 2.06287L1.47415 4.51287ZM2.51015 7.31777C2.38558 7.25549 2.24137 7.24524 2.10924 7.28928C1.97711 7.33333 1.86789 7.42805 1.8056 7.55262C1.74332 7.6772 1.73307 7.82141 1.77711 7.95354C1.82115 8.08567 1.91588 8.19489 2.04045 8.25717L6.13895 10.3068C6.40628 10.4405 6.70106 10.5101 6.99995 10.5101C7.29884 10.5101 7.59363 10.4405 7.86095 10.3068L11.9574 8.25857C12.0196 8.22811 12.0752 8.18563 12.1209 8.13357C12.1666 8.08152 12.2016 8.02094 12.2238 7.9553C12.246 7.88967 12.255 7.82029 12.2503 7.75116C12.2455 7.68204 12.2272 7.61453 12.1962 7.55254C12.1653 7.49055 12.1224 7.4353 12.07 7.38998C12.0175 7.34465 11.9567 7.31014 11.8909 7.28845C11.8251 7.26676 11.7556 7.2583 11.6865 7.26357C11.6175 7.26885 11.5501 7.28774 11.4884 7.31917L7.39125 9.36737C7.26976 9.42812 7.13579 9.45975 6.99995 9.45975C6.86412 9.45975 6.73015 9.42812 6.60865 9.36737L2.51015 7.31777Z" fill="#FF5923"/>
</svg>
