<svg width="20" height="20" viewBox="0 0 20 20" fill="none" xmlns="http://www.w3.org/2000/svg">
<path d="M8.333 16.8864C5.75975 16.2658 3.73426 14.2402 3.11368 11.6669M16.8861 11.667C16.2655 14.2402 14.2401 16.2657 11.6668 16.8864M11.6667 3.11414C14.24 3.73473 16.2655 5.76027 16.8861 8.33357M3.11385 8.33366C3.73444 5.76032 5.76 3.73474 8.33334 3.11414M2.99984 11.667H3.6665C4.13321 11.667 4.36657 11.667 4.54483 11.5762C4.70163 11.4963 4.82911 11.3688 4.90901 11.212C4.99984 11.0337 4.99984 10.8004 4.99984 10.3337V9.66699C4.99984 9.20028 4.99984 8.96693 4.90901 8.78867C4.82911 8.63187 4.70163 8.50438 4.54483 8.42449C4.36657 8.33366 4.13321 8.33366 3.6665 8.33366H2.99984C2.53313 8.33366 2.29977 8.33366 2.12151 8.42449C1.96471 8.50438 1.83723 8.63187 1.75733 8.78867C1.6665 8.96693 1.6665 9.20028 1.6665 9.66699V10.3337C1.6665 10.8004 1.6665 11.0337 1.75733 11.212C1.83723 11.3688 1.96471 11.4963 2.12151 11.5762C2.29977 11.667 2.53313 11.667 2.99984 11.667ZM16.3332 11.667H16.9998C17.4665 11.667 17.6999 11.667 17.8782 11.5762C18.035 11.4963 18.1624 11.3688 18.2423 11.212C18.3332 11.0337 18.3332 10.8004 18.3332 10.3337V9.66699C18.3332 9.20028 18.3332 8.96693 18.2423 8.78867C18.1624 8.63187 18.035 8.50438 17.8782 8.42449C17.6999 8.33366 17.4665 8.33366 16.9998 8.33366H16.3332C15.8665 8.33366 15.6331 8.33366 15.4548 8.42449C15.298 8.50438 15.1706 8.63187 15.0907 8.78867C14.9998 8.96693 14.9998 9.20028 14.9998 9.66699V10.3337C14.9998 10.8004 14.9998 11.0337 15.0907 11.212C15.1706 11.3688 15.298 11.4963 15.4548 11.5762C15.6331 11.667 15.8665 11.667 16.3332 11.667ZM9.6665 5.00033H10.3332C10.7999 5.00033 11.0332 5.00033 11.2115 4.9095C11.3683 4.8296 11.4958 4.70212 11.5757 4.54532C11.6665 4.36706 11.6665 4.1337 11.6665 3.66699V3.00033C11.6665 2.53362 11.6665 2.30026 11.5757 2.122C11.4958 1.9652 11.3683 1.83771 11.2115 1.75782C11.0332 1.66699 10.7999 1.66699 10.3332 1.66699H9.6665C9.19979 1.66699 8.96644 1.66699 8.78818 1.75782C8.63138 1.83771 8.50389 1.9652 8.424 2.122C8.33317 2.30026 8.33317 2.53362 8.33317 3.00033V3.66699C8.33317 4.1337 8.33317 4.36706 8.424 4.54532C8.50389 4.70212 8.63138 4.8296 8.78818 4.9095C8.96644 5.00033 9.19979 5.00033 9.6665 5.00033ZM9.6665 18.3337H10.3332C10.7999 18.3337 11.0332 18.3337 11.2115 18.2428C11.3683 18.1629 11.4958 18.0355 11.5757 17.8787C11.6665 17.7004 11.6665 17.467 11.6665 17.0003V16.3337C11.6665 15.8669 11.6665 15.6336 11.5757 15.4553C11.4958 15.2985 11.3683 15.171 11.2115 15.0912C11.0332 15.0003 10.7999 15.0003 10.3332 15.0003H9.6665C9.19979 15.0003 8.96644 15.0003 8.78818 15.0912C8.63138 15.171 8.50389 15.2985 8.424 15.4553C8.33317 15.6336 8.33317 15.8669 8.33317 16.3337V17.0003C8.33317 17.467 8.33317 17.7004 8.424 17.8787C8.50389 18.0355 8.63138 18.1629 8.78818 18.2428C8.96644 18.3337 9.19979 18.3337 9.6665 18.3337Z" stroke="#A1A1AA" stroke-width="1.67" stroke-linecap="round" stroke-linejoin="round"/>
</svg>
