<svg width="77" height="20" viewBox="0 0 77 20" fill="none" xmlns="http://www.w3.org/2000/svg">
<g clip-path="url(#clip0_1112_1123)">
<path d="M76.4184 19.9484C76.3765 20.007 76.2929 20.0153 76.2343 19.9735L67.4653 13.5223L62.7796 16.3002C62.7211 16.3337 62.6541 16.3337 62.5956 16.3002C62.5119 16.25 62.4868 16.1413 62.537 16.0576L66.2604 9.94944L67.4737 7.95801L68.9798 9.94944L76.4267 19.7978C76.4518 19.8396 76.4519 19.9066 76.4184 19.9484Z" fill="#0E1821"/>
<path d="M76.4184 0.0512508C76.3765 -0.00732045 76.2929 -0.0156893 76.2343 0.0261473L67.4653 6.47736L62.7796 3.6994C62.7211 3.66594 62.6541 3.66594 62.5956 3.6994C62.5119 3.74961 62.4868 3.85838 62.537 3.94206L66.2604 10.0502L67.4737 12.0416L68.9798 10.0502L76.4267 0.201862C76.4518 0.160025 76.4519 0.0930874 76.4184 0.0512508Z" fill="#E9420C"/>
<path d="M60.7634 13.389L60.2111 11.5984H56.9981L56.3956 13.389H54.4795L57.5754 4.69531H59.6672L62.738 13.389H60.7634ZM59.7007 10.0922L58.6213 6.65327H58.5962L57.4834 10.0922H59.7007Z" fill="#0E1821"/>
<path d="M51.4592 6.23434V13.3884H49.6435V6.23434H47.0161V4.70312H54.0865V6.23434H51.4592Z" fill="#0E1821"/>
<path d="M38.1044 6.2349V8.05898H42.3383V9.59857H38.1044V11.8494H42.924V13.3806H36.3306V4.69531H42.7232V6.2349H38.1044Z" fill="#0E1821"/>
<path d="M31.1428 5.96706C30.6994 5.96706 30.3312 6.0591 30.0467 6.25155C29.7622 6.444 29.62 6.69501 29.62 7.01297C29.62 7.24726 29.6869 7.43971 29.8208 7.58195C29.9547 7.73256 30.2308 7.85807 30.6575 7.95011L32.6992 8.44379C33.5359 8.6446 34.1216 8.93746 34.4479 9.32236C34.7742 9.69889 34.9416 10.1842 34.9416 10.7699C34.9416 11.3891 34.791 11.9162 34.4898 12.343C34.1885 12.7697 33.7785 13.0877 33.2598 13.3052C32.741 13.5144 32.1553 13.6148 31.5026 13.6148C30.3563 13.6148 29.461 13.3721 28.8167 12.8868C28.1724 12.4015 27.8294 11.6736 27.7959 10.7113H29.5363C29.553 11.1548 29.712 11.4979 30.03 11.7489C30.3479 11.9915 30.7914 12.117 31.3771 12.117C31.9628 12.117 32.4147 12.025 32.7243 11.8409C33.0338 11.6568 33.1928 11.3724 33.1928 10.9958C33.1928 10.7532 33.1091 10.5691 32.9418 10.4268C32.7745 10.2846 32.4983 10.1591 32.1134 10.0503C31.7285 9.93317 31.0843 9.77419 30.1806 9.57338C29.3857 9.39766 28.8167 9.11317 28.4569 8.72827C28.1055 8.34338 27.9298 7.80787 27.9298 7.13848C27.9298 6.62807 28.0553 6.16787 28.2979 5.75787C28.549 5.35624 28.9171 5.03828 29.4192 4.81237C29.9212 4.57808 30.532 4.46094 31.2683 4.46094C31.9377 4.46094 32.5234 4.57808 33.0255 4.81237C33.5275 5.04665 33.9208 5.37298 34.2053 5.79134C34.4898 6.20971 34.6404 6.70338 34.6571 7.27236H32.9167C32.8414 6.40216 32.2473 5.96706 31.1428 5.96706Z" fill="#0E1821"/>
<path d="M24.7422 13.389V4.69531H26.5579V13.389H24.7422Z" fill="#0E1821"/>
<path d="M19.9563 11.2804L21.8473 4.69531H23.7383L20.7846 13.389H19.0526L16.124 4.69531H18.0736L19.9395 11.2804H19.9563Z" fill="#0E1821"/>
<path d="M10.518 6.2349V8.05898H14.7519V9.59857H10.518V11.8494H15.3376V13.3806H8.74414V4.69531H15.1284V6.2349H10.518Z" fill="#0E1821"/>
<path d="M7.12896 7.15531C7.12896 7.64898 7.01182 8.08408 6.77753 8.45224C6.54325 8.8204 6.21692 9.07979 5.79019 9.22204L6.07468 9.36428C6.40937 9.53999 6.62692 9.79101 6.72733 10.1173C6.8361 10.4437 6.88631 10.8453 6.88631 11.3306V12.1422C6.88631 12.753 7.02018 13.0961 7.27957 13.163V13.389H5.27141C5.22121 13.2467 5.17937 13.0543 5.13754 12.82C5.10407 12.5857 5.08733 12.3598 5.08733 12.1506L5.0706 11.2051C5.0706 10.8369 5.00366 10.5608 4.87815 10.3851C4.75264 10.2094 4.59366 10.1006 4.39285 10.0588C4.2004 10.0086 3.94938 9.98346 3.63979 9.98346H1.77387V13.3806H0V4.69531H4.49325C5.02876 4.69531 5.5057 4.81246 5.89896 5.03837C6.30059 5.26429 6.60182 5.55715 6.811 5.93368C7.02019 6.30184 7.12896 6.71184 7.12896 7.15531ZM5.31325 7.33939C5.31325 6.99633 5.20448 6.71184 4.97856 6.51102C4.76101 6.30184 4.45978 6.20143 4.09162 6.20143H1.78224V8.52755H3.96611C4.41795 8.52755 4.75264 8.43551 4.97856 8.25979C5.19611 8.06734 5.31325 7.76612 5.31325 7.33939Z" fill="#0E1821"/>
</g>
<defs>
<clipPath id="clip0_1112_1123">
<rect width="76.445" height="20" fill="white"/>
</clipPath>
</defs>
</svg>
